<svg xmlns="http://www.w3.org/2000/svg" version="1.1" width="32" height="32"><rect id="backgroundrect" width="100%" height="100%" x="0" y="0" fill="none" stroke="none" class="" style=""/><title>plus-circle</title><g class="currentLayer" style=""><title>Layer 1</title><path d="M7.936694145202637,14.919305450439452 c-0.005000000000000001,0 -0.010000000000000002,0 -0.016000000000000004,0 c-0.6310000000000001,0 -1.143,0.511 -1.143,1.143 s0.511,1.143 1.143,1.143 c0.006000000000000002,0 0.011000000000000003,0 0.017000000000000005,0 h15.998 c0.005000000000000001,0 0.010000000000000002,0 0.016000000000000004,0 c0.6310000000000001,0 1.143,-0.511 1.143,-1.143 s-0.511,-1.143 -1.143,-1.143 c-0.006000000000000002,0 -0.011000000000000003,0 -0.017000000000000005,0 z" id="svg_1" class=""/><path d="M17.079694145202637,8.062305450439453 c0,-0.005000000000000001 0,-0.010000000000000002 0,-0.016000000000000004 c0,-0.6310000000000001 -0.511,-1.143 -1.143,-1.143 s-1.143,0.511 -1.143,1.143 c0,0.006000000000000002 0,0.011000000000000003 0,0.017000000000000005 v-0.0010000000000000002 v15.999 c0,0.005000000000000001 0,0.010000000000000002 0,0.016000000000000004 c0,0.6310000000000001 0.511,1.143 1.143,1.143 s1.143,-0.511 1.143,-1.143 c0,-0.006000000000000002 0,-0.011000000000000003 0,-0.017000000000000005 v0.0010000000000000002 z" id="svg_2" class=""/><path d="M15.998999442905188,1.527369021953051e-7 c-8.823,0 -15.999,7.177 -15.999,15.999 s7.177,15.999 15.999,15.999 c8.823,0 15.999,-7.177 15.999,-15.999 s-7.177,-15.999 -15.999,-15.999 zM15.998999442905188,2.2860001527369023 c7.588,0 13.714,6.127 13.714,13.714 s-6.126,13.714 -13.714,13.714 c-7.588,0 -13.714,-6.126 -13.714,-13.714 s6.126,-13.714 13.714,-13.714 z" id="svg_3" class=""/></g></svg>