<svg xmlns="http://www.w3.org/2000/svg" xmlns:xlink="http://www.w3.org/1999/xlink" version="1.1" enable-background="new 0 0 90 90" xml:space="preserve" width="79" height="82"><rect id="backgroundrect" width="100%" height="100%" x="0" y="0" fill="none" stroke="none" class="" style=""/><g class="currentLayer" style=""><title>Layer 1</title><path d="M34.10730452346802,28.074210174560548 c2.379,2.419 3.979,4.311 4.799,5.675 c0.004000000000000001,0.012000000000000002 0.010000000000000002,0.021000000000000005 0.016000000000000004,0.03200000000000001 c1.6990000000000003,4.036 2.542,7.192 2.529,9.469 c-0.021000000000000005,1.054 -0.30900000000000005,1.832 -0.8590000000000001,2.335 c-0.28800000000000003,-0.262 -0.5960000000000001,-0.5700000000000001 -0.924,-0.924 l-0.017000000000000005,-0.017000000000000005 c-1.2650000000000001,-1.3210000000000002 -2.519,-2.749 -3.762,-4.28 c-1.44,-1.846 -3.786,-3.326 -7.036,-4.442 v-0.017000000000000005 c-3.6980000000000004,-1.255 -6.795,-0.37500000000000006 -9.291,2.6430000000000002 l-0.016000000000000004,0.017000000000000005 c-1.541,1.8410000000000002 -1.7850000000000001,3.7430000000000003 -0.7300000000000001,5.707 c0.7190000000000001,1.5150000000000001 2.416,3.05 5.092,4.604 h-0.018000000000000002 c4.043,2.369 6.789,5.91 8.238,10.621 c0.05000000000000001,0.21000000000000002 0.10900000000000001,0.42100000000000004 0.17800000000000002,0.6320000000000001 c0.016000000000000004,0.036000000000000004 0.031000000000000007,0.07400000000000001 0.04900000000000001,0.11300000000000002 c0.027000000000000007,0.06900000000000002 0.05500000000000001,0.14 0.08100000000000002,0.21100000000000002 c1.54,4.581 3.8920000000000003,7.688000000000001 7.053,9.323 c-0.7430000000000001,3.187 -0.138,6.121 1.815,8.804 v0.017000000000000005 c2.087,3.26 7.616,4.351 16.587,3.275 c9.313,-1.115 13.94,-4.319 13.88,-9.615 c0.1,-3.246 -0.16000000000000003,-5.618 -0.779,-7.118 c0.51,-0.5860000000000001 1.001,-1.202 1.476,-1.8490000000000002 h-0.016000000000000004 c0.47800000000000004,-0.6410000000000001 1.002,-1.483 1.572,-2.529 c0.011000000000000003,-0.018000000000000002 0.021000000000000005,-0.03300000000000001 0.03300000000000001,-0.04800000000000001 c0.125,-0.251 0.24900000000000003,-0.509 0.37200000000000005,-0.778 c0.018000000000000002,-0.03200000000000001 0.03400000000000001,-0.06400000000000002 0.04900000000000001,-0.09800000000000003 c1.479,-2.831 2.543,-5.484 3.194,-7.961 c0.5660000000000001,-2.102 0.8480000000000001,-4.075 0.8440000000000001,-5.918 c-0.0020000000000000005,-2.8440000000000003 -0.28300000000000003,-5.341 -0.8440000000000001,-7.49 c-0.31200000000000006,-1.248 -0.7060000000000001,-2.3890000000000002 -1.184,-3.422 l-0.017000000000000005,-0.016000000000000004 c-1.967,-4.096 -5.047,-6.127 -9.241,-6.097 c-0.31800000000000006,-0.006000000000000002 -0.6590000000000001,0.037000000000000005 -1.021,0.13 c-1.592,-1.727 -3.402,-2.559 -5.432,-2.497 c-0.6530000000000001,-0.03300000000000001 -1.546,0.19400000000000003 -2.676,0.6810000000000002 c-0.027000000000000007,0.010000000000000002 -0.05400000000000001,0.021000000000000005 -0.08000000000000002,0.03300000000000001 c-0.468,0.18000000000000002 -0.8620000000000001,0.35700000000000004 -1.185,0.534 c-1.146,-0.6730000000000002 -2.404,-1.002 -3.777,-0.989 c-0.5630000000000001,0.0010000000000000002 -1.143,0.07600000000000001 -1.735,0.22700000000000004 c-0.024000000000000004,0.006000000000000002 -0.05200000000000001,0.012000000000000002 -0.08100000000000002,0.018000000000000002 c-0.18800000000000003,0.04300000000000001 -0.38800000000000007,0.11300000000000002 -0.6000000000000001,0.21100000000000002 c-2.428,-5.012 -5.434,-8.461 -9.016,-10.345 c-2.283,-1.224 -4.186,-1.7590000000000001 -5.707,-1.605 c-1.9460000000000002,0.11100000000000002 -3.39,1.078 -4.329,2.902 c-0.005000000000000001,0.011000000000000003 -0.011000000000000003,0.021000000000000005 -0.016000000000000004,0.03200000000000001 c-1.7610000000000001,3.055 -0.923,6.319 2.513,9.793 L34.10730452346802,28.074210174560548 zM35.03030452346802,20.04821017456055 l0.017000000000000005,-0.031000000000000007 c0.25,-0.49000000000000005 0.6290000000000001,-0.7620000000000001 1.135,-0.812 c0.9430000000000001,-0.009000000000000003 2.144,0.38000000000000006 3.6,1.167 c3.3120000000000003,1.8490000000000002 6.046,5.34 8.204,10.475 c0.015000000000000003,0.038000000000000006 0.030000000000000006,0.07600000000000001 0.04900000000000001,0.11300000000000002 c0.005000000000000001,0.012000000000000002 0.011000000000000003,0.022000000000000006 0.016000000000000004,0.03300000000000001 v0.016000000000000004 l0.03300000000000001,0.06400000000000002 c0.7640000000000001,1.8930000000000002 1.5910000000000002,4.514 2.48,7.864 c0.14,0.519 0.44200000000000006,0.913 0.908,1.184 c0.466,0.269 0.9570000000000001,0.3340000000000001 1.476,0.19400000000000003 c0.518,-0.14 0.912,-0.44100000000000006 1.184,-0.908 c0.269,-0.466 0.3340000000000001,-0.9570000000000001 0.19400000000000003,-1.475 c-0.7570000000000001,-2.85 -1.47,-5.201 -2.141,-7.053 c0.05600000000000001,-0.031000000000000007 0.10900000000000001,-0.05900000000000001 0.16300000000000003,-0.08200000000000002 c0.24200000000000002,-0.05500000000000001 0.48000000000000004,-0.08200000000000002 0.7130000000000001,-0.08100000000000002 c1.189,0.023000000000000007 2.216,0.548 3.08,1.573 c0.9390000000000001,1.225 1.814,3.813 2.6270000000000002,7.766 c0.11100000000000002,0.525 0.39300000000000007,0.936 0.8440000000000001,1.232 c0.44800000000000006,0.29500000000000004 0.935,0.38700000000000007 1.459,0.275 c0.524,-0.10500000000000001 0.936,-0.38100000000000006 1.232,-0.8260000000000001 c0.29900000000000004,-0.44900000000000007 0.3960000000000001,-0.936 0.29100000000000004,-1.459 c-0.8230000000000001,-3.99 -1.747,-6.834 -2.7720000000000002,-8.529 c0.401,-0.16600000000000004 0.7200000000000001,-0.264 0.9570000000000001,-0.29100000000000004 c1.282,0.07600000000000001 2.417,0.8490000000000001 3.404,2.318 l0.017000000000000005,0.016000000000000004 c0.8780000000000001,1.332 1.83,3.803 2.854,7.41 c0.14700000000000002,0.516 0.456,0.904 0.924,1.1680000000000001 c0.47000000000000003,0.259 0.9620000000000001,0.31300000000000006 1.477,0.16200000000000003 c0.515,-0.14700000000000002 0.904,-0.455 1.167,-0.925 c0.258,-0.47000000000000003 0.31300000000000006,-0.9620000000000001 0.16100000000000003,-1.476 c-0.7170000000000001,-2.536 -1.4140000000000001,-4.584 -2.091,-6.145 c1.8650000000000002,0.43000000000000005 3.292,1.6740000000000002 4.28,3.729 l-0.017000000000000005,-0.016000000000000004 c0.38600000000000007,0.8220000000000001 0.7040000000000001,1.73 0.9570000000000001,2.724 v0.016000000000000004 c0.47700000000000004,1.872 0.7150000000000001,4.045 0.7140000000000001,6.519 c-0.005000000000000001,1.529 -0.24200000000000002,3.167 -0.7140000000000001,4.912 c-0.5960000000000001,2.252 -1.568,4.668 -2.919,7.248 c-0.017000000000000005,0.035 -0.03200000000000001,0.06800000000000002 -0.04900000000000001,0.09800000000000003 c-0.11800000000000002,0.259 -0.23700000000000002,0.507 -0.35500000000000004,0.7460000000000001 l0.03200000000000001,-0.04900000000000001 c-0.467,0.8560000000000001 -0.8950000000000001,1.549 -1.2810000000000001,2.075 h-0.017000000000000005 c-0.7120000000000001,0.97 -1.463,1.86 -2.253,2.6750000000000003 l-0.04900000000000001,0.04900000000000001 c-1.34,1.332 -2.7670000000000003,2.439 -4.28,3.324 l0.08100000000000002,-0.03200000000000001 c-0.32500000000000007,0.17300000000000001 -0.6490000000000001,0.3450000000000001 -0.974,0.519 c-0.47700000000000004,0.256 -0.795,0.6390000000000001 -0.9560000000000001,1.151 c-0.15700000000000003,0.511 -0.10800000000000001,1.003 0.14600000000000002,1.476 c0.255,0.47700000000000004 0.6390000000000001,0.796 1.151,0.9560000000000001 c0.511,0.15500000000000003 1.002,0.10700000000000001 1.476,-0.14600000000000002 c0.32400000000000007,-0.17400000000000002 0.6480000000000001,-0.3460000000000001 0.973,-0.52 c0.024000000000000004,-0.010000000000000002 0.05200000000000001,-0.021000000000000005 0.08100000000000002,-0.03200000000000001 c1.084,-0.6340000000000001 2.133,-1.362 3.146,-2.188 c0.06300000000000001,0.8960000000000001 0.06800000000000002,2.199 0.017000000000000005,3.907 c-0.3470000000000001,3.134 -3.8280000000000003,5.096 -10.441,5.886 c-6.949,0.8280000000000001 -11.277,0.254 -12.987,-1.719 v0.016000000000000004 c-1.07,-1.505 -1.502,-3.1310000000000002 -1.2970000000000002,-4.88 c1.002,0.43400000000000005 2.057,0.812 3.161,1.1360000000000001 l0.03200000000000001,0.016000000000000004 c0.513,0.136 1.037,0.26 1.572,0.37300000000000005 c0.029000000000000005,0.006000000000000002 0.05700000000000001,0.012000000000000002 0.08100000000000002,0.016000000000000004 c0.6920000000000002,0.11500000000000002 1.3840000000000001,0.20700000000000002 2.076,0.275 c0.534,0.05700000000000001 1.01,-0.08400000000000002 1.427,-0.42200000000000004 c0.41400000000000003,-0.3420000000000001 0.6460000000000001,-0.779 0.6970000000000002,-1.3130000000000002 c0.05700000000000001,-0.534 -0.08400000000000002,-1.01 -0.42200000000000004,-1.427 c-0.3430000000000001,-0.41300000000000003 -0.78,-0.6460000000000001 -1.3130000000000002,-0.6960000000000002 c-0.5780000000000001,-0.05900000000000001 -1.1560000000000001,-0.135 -1.734,-0.22800000000000004 c-0.027000000000000007,-0.007000000000000002 -0.05500000000000001,-0.012000000000000002 -0.08100000000000002,-0.017000000000000005 c-0.43100000000000005,-0.1 -0.8530000000000001,-0.20800000000000002 -1.2650000000000001,-0.32400000000000007 l0.03200000000000001,0.016000000000000004 c-1.104,-0.31800000000000006 -2.146,-0.6960000000000002 -3.129,-1.135 l-0.017000000000000005,-0.016000000000000004 c-0.404,-0.17600000000000002 -0.794,-0.36400000000000005 -1.167,-0.5670000000000001 c-0.277,-0.22500000000000003 -0.559,-0.35900000000000004 -0.8440000000000001,-0.405 c-2.779,-1.111 -4.822,-3.608 -6.129,-7.49 c-0.016000000000000004,-0.035 -0.031000000000000007,-0.07400000000000001 -0.04900000000000001,-0.11400000000000002 c-0.027000000000000007,-0.06900000000000002 -0.05500000000000001,-0.14 -0.08100000000000002,-0.21100000000000002 c-0.04400000000000001,-0.13 -0.08300000000000002,-0.259 -0.11300000000000002,-0.38900000000000007 c-0.009000000000000003,-0.04800000000000001 -0.021000000000000005,-0.09700000000000003 -0.03200000000000001,-0.14600000000000002 c-1.75,-5.71 -5.08,-9.996 -9.988,-12.858 h-0.016000000000000004 c-1.822,-1.06 -3.012,-2.065 -3.566,-3.016 c-0.21900000000000003,-0.49300000000000005 -0.133,-0.974 0.259,-1.4420000000000002 l0.017000000000000005,-0.018000000000000002 c1.348,-1.6390000000000002 3.023,-2.113 5.025,-1.4260000000000002 V39.58621017456055 c2.415,0.8290000000000001 4.177,1.899 5.287,3.211 c1.3010000000000002,1.617 2.615,3.125 3.939,4.522 l0.016000000000000004,0.018000000000000002 c0.9530000000000001,1.025 1.786,1.762 2.496,2.205 c0.24100000000000002,0.15300000000000002 0.501,0.25 0.779,0.29100000000000004 c0.279,0.03900000000000001 0.555,0.018000000000000002 0.8270000000000001,-0.06400000000000002 c2.862,-0.7640000000000001 4.331,-2.904 4.41,-6.421 c0.09500000000000003,-2.688 -0.8510000000000001,-6.396 -2.838,-11.122 c-0.030000000000000006,-0.06100000000000001 -0.06200000000000001,-0.11900000000000002 -0.09700000000000003,-0.18000000000000002 c-0.8570000000000001,-1.598 -2.701,-3.8360000000000003 -5.529,-6.712 l-0.016000000000000004,-0.017000000000000005 C34.95730452346802,23.399210174560547 34.34730452346802,21.64421017456055 35.03030452346802,20.04821017456055 z" id="svg_1" class=""/><path d="M15.913304523468017,6.007210174560546 c0.46900000000000003,0.269 0.9600000000000001,0.3340000000000001 1.476,0.19400000000000003 l4.427,-1.2 l-5.756,10.896 c-0.254,0.47500000000000003 -0.30300000000000005,0.9670000000000001 -0.14600000000000002,1.476 c0.16100000000000003,0.513 0.48000000000000004,0.8970000000000001 0.9570000000000001,1.151 c0.47500000000000003,0.254 0.9650000000000001,0.30300000000000005 1.476,0.14600000000000002 c0.513,-0.16100000000000003 0.8960000000000001,-0.47900000000000004 1.151,-0.9560000000000001 l5.5280000000000005,-10.475 l1.411,5.237 c0.14,0.518 0.44300000000000006,0.913 0.908,1.184 c0.467,0.27 0.9580000000000001,0.3340000000000001 1.475,0.19500000000000003 c0.52,-0.14 0.914,-0.44300000000000006 1.184,-0.909 c0.27,-0.466 0.3340000000000001,-0.9580000000000001 0.19500000000000003,-1.475 L27.53930452346802,1.5642101745605466 c-0.010000000000000002,-0.04200000000000001 -0.021000000000000005,-0.08500000000000002 -0.03200000000000001,-0.129 c-0.005000000000000001,-0.017000000000000005 -0.010000000000000002,-0.03300000000000001 -0.017000000000000005,-0.04900000000000001 c-0.024000000000000004,-0.08400000000000002 -0.05100000000000001,-0.16500000000000004 -0.08100000000000002,-0.24300000000000002 c-0.018000000000000002,-0.03400000000000001 -0.03300000000000001,-0.06600000000000002 -0.04900000000000001,-0.09700000000000003 l-0.09800000000000003,-0.16200000000000003 c-0.021000000000000005,-0.031000000000000007 -0.04200000000000001,-0.06400000000000002 -0.06400000000000002,-0.09800000000000003 c-0.06800000000000002,-0.08400000000000002 -0.14500000000000002,-0.16600000000000004 -0.22700000000000004,-0.24300000000000002 c-0.10900000000000001,-0.10300000000000001 -0.234,-0.19500000000000003 -0.37300000000000005,-0.275 c-0.021000000000000005,-0.012000000000000002 -0.04300000000000001,-0.023000000000000007 -0.06400000000000002,-0.03200000000000001 c-0.04500000000000001,-0.023000000000000007 -0.08700000000000002,-0.04500000000000001 -0.13,-0.06500000000000002 c-0.07300000000000001,-0.03300000000000001 -0.14900000000000002,-0.06000000000000001 -0.22800000000000004,-0.08200000000000002 c-0.3460000000000001,-0.11300000000000002 -0.7010000000000001,-0.11900000000000002 -1.07,-0.016000000000000004 l-8.756,2.367 c-0.514,0.14700000000000002 -0.902,0.454 -1.166,0.924 c-0.27,0.467 -0.3350000000000001,0.9590000000000001 -0.19500000000000003,1.476 C15.136304523468016,5.3542101745605475 15.444304523468016,5.743210174560547 15.913304523468017,6.007210174560546 z" id="svg_2" class=""/><path d="M15.11830452346802,39.10121017456055 c0.27,-0.46900000000000003 0.3350000000000001,-0.9610000000000001 0.19500000000000003,-1.477 c-0.14600000000000002,-0.514 -0.453,-0.902 -0.924,-1.1680000000000001 c-0.46900000000000003,-0.269 -0.9600000000000001,-0.3330000000000001 -1.476,-0.19300000000000003 l-4.476,1.215 l5.74,-10.911 c0.254,-0.47500000000000003 0.30200000000000005,-0.9660000000000001 0.14600000000000002,-1.476 c-0.16000000000000003,-0.514 -0.47900000000000004,-0.8970000000000001 -0.9560000000000001,-1.15 c-0.47500000000000003,-0.255 -0.9660000000000001,-0.30400000000000005 -1.476,-0.14600000000000002 c-0.513,0.16100000000000003 -0.8970000000000001,0.48000000000000004 -1.151,0.9570000000000001 l-5.496,10.457 l-1.4100000000000001,-5.221 c-0.14100000000000001,-0.518 -0.44300000000000006,-0.912 -0.909,-1.184 c-0.465,-0.27 -0.9580000000000001,-0.3340000000000001 -1.476,-0.19500000000000003 c-0.518,0.14100000000000001 -0.912,0.44200000000000006 -1.184,0.908 c-0.269,0.467 -0.3330000000000001,0.9580000000000001 -0.19400000000000003,1.477 l2.6590000000000003,9.906 c0.010000000000000002,0.04000000000000001 0.020000000000000004,0.08400000000000002 0.03300000000000001,0.129 c0.004000000000000001,0.018000000000000002 0.010000000000000002,0.03300000000000001 0.016000000000000004,0.04900000000000001 c0.023000000000000007,0.08400000000000002 0.05100000000000001,0.16600000000000004 0.08100000000000002,0.24400000000000002 c0.017000000000000005,0.03300000000000001 0.03300000000000001,0.06600000000000002 0.04900000000000001,0.09700000000000003 l0.09700000000000003,0.16300000000000003 c0.021000000000000005,0.030000000000000006 0.04300000000000001,0.06300000000000001 0.06500000000000002,0.09700000000000003 c0.06800000000000002,0.08500000000000002 0.14400000000000002,0.16500000000000004 0.22800000000000004,0.24300000000000002 C3.409304523468018,42.023210174560546 3.5333045234680185,42.11621017456055 3.672304523468018,42.19621017456055 c0.021000000000000005,0.012000000000000002 0.04200000000000001,0.023000000000000007 0.06500000000000002,0.03300000000000001 c0.029000000000000005,0.016000000000000004 0.05700000000000001,0.031000000000000007 0.08000000000000002,0.04800000000000001 c0.41500000000000004,0.19400000000000003 0.8420000000000001,0.23800000000000002 1.2810000000000001,0.13 l8.853,-2.384 C14.466304523468018,39.87821017456055 14.856304523468019,39.569210174560546 15.11830452346802,39.10121017456055 z" id="svg_3" class=""/></g></svg>